<svg xmlns="http://www.w3.org/2000/svg" version="1.1" xmlns:xlink="http://www.w3.org/1999/xlink" xmlns:svgjs="http://svgjs.dev/svgjs" width="2000" height="1500" viewBox="0 0 2000 1500"><rect width="2000" height="1500" fill="#ffffff"></rect><g transform="matrix(0.4444444444444444,0,0,0.4444444444444444,555.5556583333333,250)"><svg viewBox="0 0 320 360" data-background-color="#ffffff" preserveAspectRatio="xMidYMid meet" height="2250" width="2000" xmlns="http://www.w3.org/2000/svg" xmlns:xlink="http://www.w3.org/1999/xlink"><g id="tight-bounds" transform="matrix(1,0,0,1,-0.0000369999999634274,0)"><svg viewBox="0 0 320 360" height="360" width="320"><g><svg></svg></g><g><svg viewBox="0 0 320 360" height="360" width="320"><g><path transform="translate(-29.57346,-9.38389) scale(3.79147,3.79147)" d="M50 13.6c19.1 0 34.8 14.8 36.3 33.5h5.9c-0.3-4.7-1.4-9.2-3.2-13.5-2.1-5-5.2-9.6-9.1-13.4-3.9-3.9-8.4-6.9-13.4-9.1-5.3-2.2-10.8-3.4-16.5-3.4-5.7 0-11.2 1.1-16.5 3.3-5 2.1-9.6 5.2-13.4 9.1-3.9 3.9-6.9 8.4-9.1 13.4-1.8 4.3-2.9 8.9-3.2 13.5h5.9c1.5-18.6 17.2-33.4 36.3-33.4zM50 86.4c-19.1 0-34.8-14.8-36.3-33.5h-5.9c0.3 4.7 1.4 9.2 3.2 13.5 2.1 5 5.2 9.6 9.1 13.4 3.9 3.9 8.4 6.9 13.4 9.1 5.2 2.2 10.7 3.3 16.5 3.3 5.8 0 11.2-1.1 16.5-3.3 5-2.1 9.6-5.2 13.4-9.1 3.9-3.9 6.9-8.4 9.1-13.4 1.8-4.3 2.9-8.9 3.2-13.5h-5.9c-1.5 18.7-17.2 33.5-36.3 33.5z" fill="#000000" fill-rule="nonzero" stroke="none" stroke-width="1" stroke-linecap="butt" stroke-linejoin="miter" stroke-miterlimit="10" stroke-dasharray="" stroke-dashoffset="0" font-family="none" font-weight="none" font-size="none" text-anchor="none" style="mix-blend-mode: normal" data-fill-palette-color="tertiary"></path></g><g transform="matrix(1,0,0,1,56,160.7077150851045)"><svg viewBox="0 0 208 38.58456982979103" height="38.58456982979103" width="208"><g><svg viewBox="0 0 208 38.58456982979103" height="38.58456982979103" width="208"><g><svg viewBox="0 0 267.0552396373944 49.539478568272216" height="38.58456982979103" width="208"><g transform="matrix(1,0,0,1,59.05523963739438,6.846628369421126)"><svg viewBox="0 0 208 35.846221829429965" height="35.846221829429965" width="208"><g id="textblocktransform"><svg viewBox="0 0 208 35.846221829429965" height="35.846221829429965" width="208" id="textblock"><g><svg viewBox="0 0 208 35.846221829429965" height="35.846221829429965" width="208"><g transform="matrix(1,0,0,1,0,0)"><svg width="208" viewBox="2 -38.4 226.29 39" height="35.846221829429965" data-palette-color="#000000"><path d="M11.25-0.7L11.25-0.7Q13-0.7 14.15-1.83 15.3-2.95 15.3-5.5L15.3-5.5Q15.3-7.55 13.6-8.6L13.6-8.6Q12.3-9.4 10.28-10.18 8.25-10.95 7.18-11.5 6.1-12.05 4.8-12.95L4.8-12.95Q2.25-14.75 2.25-17.85 2.25-20.95 4.83-22.95 7.4-24.95 12.35-24.95L12.35-24.95Q15.45-24.95 17.6-23.63 19.75-22.3 19.75-20.3 19.75-18.3 18.05-17.4L18.05-17.4Q17.25-17 16.45-17L16.45-17 14.65-17.55Q14.95-19.1 14.95-20.38 14.95-21.65 14.15-22.68 13.35-23.7 11.75-23.7L11.75-23.7Q7.85-23.7 7.85-19L7.85-19Q7.85-16.85 9.5-15.8L9.5-15.8Q10.75-14.95 12.7-14.28 14.65-13.6 15.78-13.1 16.9-12.6 18.2-11.7L18.2-11.7Q20.8-10 20.8-6.68 20.8-3.35 18.05-1.4 15.3 0.55 10.8 0.55L10.8 0.55Q5.8 0.55 3.4-1.1L3.4-1.1Q2-2.1 2-3.55 2-5 2.98-5.9 3.95-6.8 5.7-6.85L5.7-6.85Q6.05-0.7 11.25-0.7ZM40.8-1.15L43.2-1.45 43.5-17.3Q43.5-20.25 42.75-21.6 42-22.95 39.75-22.95 37.5-22.95 35.32-20.2 33.15-17.45 33.15-15.45L33.15-15.45 33.15-1.45 36.9-1.15 36.9 0 23.5 0 23.5-1.15 26.8-1.45 26.8-35.9 22.5-36.05 22.5-37.25 33.2-38.4 33.2-27.2Q33.2-21.55 32.9-19.55L32.9-19.55 33.2-19.55Q34.55-22.05 36.85-23.4 39.15-24.75 41.8-24.75L41.8-24.75Q49.8-24.75 49.8-17.05L49.8-17.05Q49.8-11.5 49.45-1.45L49.45-1.45 52.9-1.15 52.9 0 40.8 0 40.8-1.15ZM69.8-7.4L69.8-11.7Q64-11.7 62.5-8.65L62.5-8.65Q61.84-7.35 61.84-5.4L61.84-5.4Q61.84-2.05 64.15-1.5L64.15-1.5Q64.5-1.4 64.9-1.4L64.9-1.4Q66.5-1.4 68.09-3.08 69.7-4.75 69.8-7.4L69.8-7.4ZM61.8-16.6L61.8-16.6Q60.7-15.85 59.5-15.85 58.3-15.85 57.45-16.65 56.59-17.45 56.59-19.03 56.59-20.6 57.55-21.85 58.5-23.1 60-23.7L60-23.7Q62.95-24.95 65.59-24.95L65.59-24.95Q71.5-24.95 73.65-22.88 75.8-20.8 75.8-16.5L75.8-16.5 75.8-1.45 80-1.15 80-0.05 70.45 0.55 70-3.65Q67.65 0.6 61.9 0.6L61.9 0.6Q59.3 0.6 57.42-0.98 55.55-2.55 55.55-5.4L55.55-5.4Q55.59-9.2 59.34-11.13 63.09-13.05 69.8-13.05L69.8-13.05 69.8-17.35Q69.8-20.4 68.95-22.05 68.09-23.7 65.8-23.7 63.5-23.7 62.34-21.8L62.34-21.8Q61.59-20.55 61.59-19.15 61.59-17.75 61.8-16.6ZM98.44-1.15L100.84-1.45 101.14-17.3Q101.14-20.25 100.42-21.6 99.69-22.95 97.52-22.95 95.34-22.95 93.24-20.33 91.14-17.7 90.99-15.6L90.99-15.6 90.99-1.45 94.74-1.15 94.74 0 81.34 0 81.34-1.15 84.64-1.45 84.64-22.75 80.54-22.95 80.54-24 90.79-24.6 90.54-19.5 91.04-19.5Q93.89-24.75 99.44-24.75L99.44-24.75Q106.09-24.75 107.19-19.5L107.19-19.5Q108.54-22 110.79-23.38 113.04-24.75 115.69-24.75L115.69-24.75Q123.69-24.75 123.69-17.05L123.69-17.05Q123.69-14.85 123.34-1.45L123.34-1.45 126.79-1.15 126.79 0 114.69 0 114.69-1.15 117.09-1.45 117.39-17.3Q117.39-20.25 116.64-21.6 115.89-22.95 113.87-22.95 111.84-22.95 110.04-21.05 108.24-19.15 107.44-16.95L107.44-16.95Q107.44-14.75 107.09-1.45L107.09-1.45 110.54-1.15 110.54 0 98.44 0 98.44-1.15ZM146.34-17.45L146.34-17.45Q146.34-23.55 142.09-23.55L142.09-23.55Q137.64-23.55 136.69-15.75L136.69-15.75 146.24-15.75Q146.34-16.75 146.34-17.45ZM141.64 0.55L141.64 0.55Q136.29 0.55 132.97-2.95 129.64-6.45 129.64-12.2 129.64-17.95 133.12-21.45 136.59-24.95 141.94-24.95 147.29-24.95 149.94-22.68 152.59-20.4 152.59-16.35L152.59-16.35Q152.59-15.2 152.39-13.95L152.39-13.95 136.54-13.95 136.54-12.2Q136.54-6.6 137.94-3.73 139.34-0.85 142.17-0.85 144.99-0.85 147.31-2.02 149.64-3.2 150.94-5.35L150.94-5.35Q152.04-5 152.04-4.3L152.04-4.3Q152.04-3.05 149.69-1.4L149.69-1.4Q148.54-0.6 146.42-0.03 144.29 0.55 141.64 0.55ZM173.14-17.45L173.14-17.45Q173.14-23.55 168.89-23.55L168.89-23.55Q164.44-23.55 163.49-15.75L163.49-15.75 173.04-15.75Q173.14-16.75 173.14-17.45ZM168.44 0.55L168.44 0.55Q163.09 0.55 159.76-2.95 156.44-6.45 156.44-12.2 156.44-17.95 159.91-21.45 163.39-24.95 168.74-24.95 174.09-24.95 176.74-22.68 179.39-20.4 179.39-16.35L179.39-16.35Q179.39-15.2 179.19-13.95L179.19-13.95 163.34-13.95 163.34-12.2Q163.34-6.6 164.74-3.73 166.14-0.85 168.96-0.85 171.79-0.85 174.11-2.02 176.44-3.2 177.74-5.35L177.74-5.35Q178.84-5 178.84-4.3L178.84-4.3Q178.84-3.05 176.49-1.4L176.49-1.4Q175.34-0.6 173.21-0.03 171.09 0.55 168.44 0.55ZM199.94-1.15L202.34-1.45 202.64-17.3Q202.64-20.25 201.91-21.6 201.19-22.95 199.01-22.95 196.84-22.95 194.74-20.33 192.64-17.7 192.49-15.6L192.49-15.6 192.49-1.45 196.24-1.15 196.24 0 182.84 0 182.84-1.15 186.14-1.45 186.14-22.75 182.04-22.95 182.04-24 192.29-24.6 192.04-19.5 192.54-19.5Q195.39-24.75 200.94-24.75L200.94-24.75Q207.59-24.75 208.69-19.5L208.69-19.5Q210.04-22 212.29-23.38 214.54-24.75 217.19-24.75L217.19-24.75Q225.19-24.75 225.19-17.05L225.19-17.05Q225.19-14.85 224.84-1.45L224.84-1.45 228.29-1.15 228.29 0 216.19 0 216.19-1.15 218.59-1.45 218.89-17.3Q218.89-20.25 218.14-21.6 217.39-22.95 215.36-22.95 213.34-22.95 211.54-21.05 209.74-19.15 208.94-16.95L208.94-16.95Q208.94-14.75 208.59-1.45L208.59-1.45 212.04-1.15 212.04 0 199.94 0 199.94-1.15Z" opacity="1" transform="matrix(1,0,0,1,0,0)" fill="#000000" class="wordmark-text-0" data-fill-palette-color="primary" id="text-0"></path></svg></g></svg></g></svg></g></svg></g><g><svg viewBox="0 0 50.59280697278987 49.539478568272216" height="49.539478568272216" width="50.59280697278987"><g><svg xmlns="http://www.w3.org/2000/svg" xmlns:xlink="http://www.w3.org/1999/xlink" version="1.1" x="0" y="0" viewBox="0 5.35969997282605 512 501.34030002717395" style="enable-background:new 0 0 512 512;" xml:space="preserve" height="49.539478568272216" width="50.59280697278987" class="icon-icon-0" data-fill-palette-color="accent" id="icon-0"><g fill="#000000" data-fill-palette-color="accent"><polygon points="0,432 160,432 160,485.3 117.3,485.3 117.3,506.7 394.7,506.7 394.7,485.3 352,485.3 352,432 512,432 512,368    0,368  " fill="#000000" data-fill-palette-color="accent"></polygon><path d="M416.7 58.7c-5.1 8.5-11.2 17.8-18.5 28.2-23.8 33.6-57.1 73-87 102.9-11.2 11.2-21.5 20.6-31.2 28.6-6.8 5.6-13.1 10.2-19.2 14.2-11.4 7.4-21.8 12.1-31.5 14.2-0.9 10.2-4.4 20.4-10.4 29.8-11.6 18.2-38.6 48.7-88.3 48.7-11.3 0-23.2-1.6-35.4-4.8-9.2-2.4-16-10.4-16.9-19.8-0.9-9.4 4.2-18.4 12.7-22.5 5.8-2.8 19.6-11.5 22.2-32 2.6-19.8 16.8-54.8 53.8-60.4 1.7-0.3 3.4-0.4 5.1-0.5 2.4-8.8 6.9-18.2 13.3-28.2 3.8-5.9 8.6-12.4 14.2-19.2 8.1-9.8 17.4-20 28.6-31.2 12.6-12.6 31.7-30.2 53-48.1H0v287.9h512V58.7H416.7z" fill="#000000" data-fill-palette-color="accent"></path><path d="M249.1 214.8l-45.9-45.9c-14.6 22.5-14.3 36.1-7.6 45.7-7-5.9-16.1-8.9-25.5-7.5-31 4.7-35.8 42-35.8 42-4 31.1-25.8 44.5-34.1 48.5-1 0.5-0.8 2.1 0.3 2.4 58.1 15.1 87.6-14.7 100.4-34.7 6.9-10.7 9.5-24 5-35.9l-0.2-0.5c-1.1-2.9-2.7-5.5-4.5-8C210.9 229 224.9 230.5 249.1 214.8z" fill="#000000" data-fill-palette-color="accent"></path><path d="M216 151.5l50.4 50.4c8.8-7.2 18.6-16.1 29.6-27.2C354.5 116.3 425.2 21.9 410.6 7.3 396-7.3 301.6 63.4 243.1 121.9 232.1 133 223.2 142.7 216 151.5z" fill="#000000" data-fill-palette-color="accent"></path></g></svg></g></svg></g></svg></g></svg></g></svg></g></svg></g><defs></defs></svg><rect width="320" height="360" fill="none" stroke="none" visibility="hidden"></rect></g></svg></g></svg>